<svg xmlns="http://www.w3.org/2000/svg" viewBox="0 0 1520 1180" width="1520" height="1180">
  <defs>
    <marker id="arrowA" markerWidth="10" markerHeight="7" refX="9" refY="3.5" orient="auto">
      <polygon points="0 0, 10 3.5, 0 7" fill="#7c3aed"/>
    </marker>
    <marker id="arrowB" markerWidth="10" markerHeight="7" refX="9" refY="3.5" orient="auto">
      <polygon points="0 0, 10 3.5, 0 7" fill="#10b981"/>
    </marker>
    <marker id="arrowC" markerWidth="10" markerHeight="7" refX="9" refY="3.5" orient="auto">
      <polygon points="0 0, 10 3.5, 0 7" fill="#2563eb"/>
    </marker>
    <marker id="arrowE" markerWidth="10" markerHeight="7" refX="9" refY="3.5" orient="auto">
      <polygon points="0 0, 10 3.5, 0 7" fill="#f97316"/>
    </marker>
    <marker id="arrowF" markerWidth="10" markerHeight="7" refX="9" refY="3.5" orient="auto">
      <polygon points="0 0, 10 3.5, 0 7" fill="#7c3aed"/>
    </marker>
    <marker id="arrowG" markerWidth="10" markerHeight="7" refX="9" refY="3.5" orient="auto">
      <polygon points="0 0, 10 3.5, 0 7" fill="#ef4444"/>
    </marker>
    <marker id="arrowH" markerWidth="10" markerHeight="7" refX="9" refY="3.5" orient="auto">
      <polygon points="0 0, 10 3.5, 0 7" fill="#6b7280"/>
    </marker>
    <filter id="shadowSoft" x="-20%" y="-20%" width="140%" height="160%">
      <feDropShadow dx="0" dy="3" stdDeviation="6" flood-color="#0f172a" flood-opacity="0.12"/>
    </filter>
    <filter id="shadowGlass" x="-20%" y="-20%" width="140%" height="160%">
      <feDropShadow dx="0" dy="10" stdDeviation="16" flood-color="#020617" flood-opacity="0.28"/>
    </filter>
    <style>
    text { font-family: 'Helvetica Neue', Helvetica, Arial, 'PingFang SC', 'Microsoft YaHei', sans-serif; }
    .title { font-size: 30px; font-weight: 700; fill: #111827; }
    .subtitle { font-size: 14px; font-weight: 500; fill: #6b7280; }
    .section { font-size: 13px; font-weight: 700; fill: #2563eb; letter-spacing: 1.4px; }
    .section-sub { font-size: 12px; font-weight: 500; fill: #94a3b8; }
    .node-title { font-size: 18px; font-weight: 700; fill: #111827; }
    .node-sub { font-size: 12px; font-weight: 500; fill: #6b7280; }
    .node-type { font-size: 12px; font-weight: 700; fill: #9ca3af; letter-spacing: 0.08em; }
    .arrow-label { font-size: 12px; font-weight: 600; fill: #6b7280; }
    .legend { font-size: 12px; font-weight: 500; fill: #6b7280; }
    .footnote { font-size: 12px; font-weight: 500; fill: #94a3b8; }
    </style>
  </defs>
  <rect width="1520.0" height="1180.0" fill="#ffffff"/>
  <text x="760.0" y="56" text-anchor="middle" class="title">BioSkills Dependency Tree</text>
  <text x="760.0" y="82" text-anchor="middle" class="subtitle">Grouped view: input data types trigger canonical skill families, which then route into representative downstream workflows.</text>
  <rect x="30.0" y="118.0" width="280.0" height="1000.0" rx="16.0" fill="#f8fbff" stroke="#bfdbfe" stroke-width="1.4" stroke-dasharray="6 5"/>
  <text x="48.0" y="142.0" class="section">INPUT TYPES</text>
  <text x="48.0" y="162.0" class="section-sub">entry artifacts</text>
  <rect x="340.0" y="118.0" width="540.0" height="1000.0" rx="16.0" fill="#fcfcff" stroke="#c7d2fe" stroke-width="1.4" stroke-dasharray="6 5"/>
  <text x="358.0" y="142.0" class="section">TRIGGERED SKILL FAMILIES</text>
  <text x="358.0" y="162.0" class="section-sub">grouped canonical domains</text>
  <rect x="910.0" y="118.0" width="580.0" height="1000.0" rx="16.0" fill="#fffaf4" stroke="#fed7aa" stroke-width="1.4" stroke-dasharray="6 5"/>
  <text x="928.0" y="142.0" class="section">DOWNSTREAM WORKFLOWS</text>
  <text x="928.0" y="162.0" class="section-sub">representative grouped endpoints</text>
  <path d="M 285.0,202.0 L 349.6,202.0 L 349.6,197.0 L 370.0,197.0" fill="none" stroke="#2563eb" stroke-width="2.4" marker-end="url(#arrowC)"/>
  <path d="M 285.0,202.0 L 305.4,202.0 L 349.6,363.0 L 370.0,363.0" fill="none" stroke="#2563eb" stroke-width="2.4" marker-end="url(#arrowC)"/>
  <path d="M 285.0,202.0 L 305.4,202.0 L 349.6,529.0 L 370.0,529.0" fill="none" stroke="#2563eb" stroke-width="2.4" marker-end="url(#arrowC)"/>
  <path d="M 285.0,202.0 L 305.4,202.0 L 349.6,861.0 L 370.0,861.0" fill="none" stroke="#2563eb" stroke-width="2.4" marker-end="url(#arrowC)"/>
  <path d="M 285.0,358.0 L 349.6,358.0 L 349.6,197.0 L 370.0,197.0" fill="none" stroke="#2563eb" stroke-width="2.4" marker-end="url(#arrowC)"/>
  <path d="M 285.0,358.0 L 305.4,358.0 L 349.6,529.0 L 370.0,529.0" fill="none" stroke="#2563eb" stroke-width="2.4" marker-end="url(#arrowC)"/>
  <path d="M 285.0,358.0 L 305.4,358.0 L 349.6,695.0 L 370.0,695.0" fill="none" stroke="#2563eb" stroke-width="2.4" marker-end="url(#arrowC)"/>
  <path d="M 285.0,514.0 L 305.4,514.0 L 349.6,363.0 L 370.0,363.0" fill="none" stroke="#2563eb" stroke-width="2.4" marker-end="url(#arrowC)"/>
  <path d="M 285.0,514.0 L 609.6,514.0 L 609.6,700.0 L 630.0,700.0" fill="none" stroke="#2563eb" stroke-width="2.4" marker-end="url(#arrowC)"/>
  <path d="M 285.0,670.0 L 305.4,670.0 L 349.6,695.0 L 370.0,695.0" fill="none" stroke="#2563eb" stroke-width="2.4" marker-end="url(#arrowC)"/>
  <path d="M 285.0,670.0 L 609.6,670.0 L 609.6,363.0 L 630.0,363.0" fill="none" stroke="#2563eb" stroke-width="2.4" marker-end="url(#arrowC)"/>
  <path d="M 285.0,670.0 L 609.6,670.0 L 609.6,700.0 L 630.0,700.0" fill="none" stroke="#2563eb" stroke-width="2.4" marker-end="url(#arrowC)"/>
  <path d="M 285.0,826.0 L 305.4,826.0 L 349.6,861.0 L 370.0,861.0" fill="none" stroke="#2563eb" stroke-width="2.4" marker-end="url(#arrowC)"/>
  <path d="M 285.0,826.0 L 305.4,826.0 L 349.6,1027.0 L 370.0,1027.0" fill="none" stroke="#2563eb" stroke-width="2.4" marker-end="url(#arrowC)"/>
  <path d="M 285.0,982.0 L 609.6,982.0 L 609.6,363.0 L 630.0,363.0" fill="none" stroke="#2563eb" stroke-width="2.4" marker-end="url(#arrowC)"/>
  <path d="M 285.0,982.0 L 609.6,982.0 L 609.6,700.0 L 630.0,700.0" fill="none" stroke="#2563eb" stroke-width="2.4" marker-end="url(#arrowC)"/>
  <path d="M 600.0,197.0 L 919.6,197.0 L 919.6,192.0 L 940.0,192.0" fill="none" stroke="#7c3aed" stroke-width="2.4" marker-end="url(#arrowA)"/>
  <path d="M 600.0,363.0 L 919.6,363.0 L 919.6,340.0 L 940.0,340.0" fill="none" stroke="#7c3aed" stroke-width="2.4" marker-end="url(#arrowA)"/>
  <path d="M 600.0,529.0 L 620.4,529.0 L 919.6,488.0 L 940.0,488.0" fill="none" stroke="#7c3aed" stroke-width="2.4" marker-end="url(#arrowA)"/>
  <path d="M 600.0,695.0 L 919.6,695.0 L 919.6,636.0 L 940.0,636.0" fill="none" stroke="#7c3aed" stroke-width="2.4" marker-end="url(#arrowA)"/>
  <path d="M 600.0,861.0 L 620.4,861.0 L 919.6,784.0 L 940.0,784.0" fill="none" stroke="#7c3aed" stroke-width="2.4" marker-end="url(#arrowA)"/>
  <path d="M 600.0,1027.0 L 620.4,1027.0 L 919.6,932.0 L 940.0,932.0" fill="none" stroke="#7c3aed" stroke-width="2.4" marker-end="url(#arrowA)"/>
  <path d="M 850.0,363.0 L 870.4,363.0 L 1209.6,414.0 L 1230.0,414.0" fill="none" stroke="#7c3aed" stroke-width="2.4" marker-end="url(#arrowA)"/>
  <path d="M 850.0,700.0 L 1209.6,700.0 L 1209.6,744.0 L 1230.0,744.0" fill="none" stroke="#ef4444" stroke-width="2.4" marker-end="url(#arrowG)" stroke-dasharray="6,4"/>
  <rect x="55.0" y="158.0" width="230.0" height="88.0" rx="10.0" fill="#eff6ff" stroke="#93c5fd" stroke-width="1.8"/>
  <text x="170.0" y="176.0" text-anchor="middle" class="node-type">INPUT</text>
  <text x="170.0" y="208.0" text-anchor="middle" class="node-title">FASTQ / FASTA / POD5</text>
  <text x="170.0" y="230.0" text-anchor="middle" class="node-sub">raw reads and sequence files</text>
  <rect x="55.0" y="314.0" width="230.0" height="88.0" rx="10.0" fill="#eff6ff" stroke="#93c5fd" stroke-width="1.8"/>
  <text x="170.0" y="332.0" text-anchor="middle" class="node-type">INPUT</text>
  <text x="170.0" y="364.0" text-anchor="middle" class="node-title">BAM / CRAM / BED / cool</text>
  <text x="170.0" y="386.0" text-anchor="middle" class="node-sub">alignments, intervals, contact maps</text>
  <rect x="55.0" y="470.0" width="230.0" height="88.0" rx="10.0" fill="#eff6ff" stroke="#93c5fd" stroke-width="1.8"/>
  <text x="170.0" y="488.0" text-anchor="middle" class="node-type">INPUT</text>
  <text x="170.0" y="520.0" text-anchor="middle" class="node-title">counts / h5ad / spatial</text>
  <text x="170.0" y="542.0" text-anchor="middle" class="node-sub">expression matrices and cell objects</text>
  <rect x="55.0" y="626.0" width="230.0" height="88.0" rx="10.0" fill="#eff6ff" stroke="#93c5fd" stroke-width="1.8"/>
  <text x="170.0" y="644.0" text-anchor="middle" class="node-type">INPUT</text>
  <text x="170.0" y="676.0" text-anchor="middle" class="node-title">VCF / phenotype / cohort</text>
  <text x="170.0" y="698.0" text-anchor="middle" class="node-sub">variants, traits, structured cohorts</text>
  <rect x="55.0" y="782.0" width="230.0" height="88.0" rx="10.0" fill="#eff6ff" stroke="#93c5fd" stroke-width="1.8"/>
  <text x="170.0" y="800.0" text-anchor="middle" class="node-type">INPUT</text>
  <text x="170.0" y="832.0" text-anchor="middle" class="node-title">mzML / contigs / SMILES</text>
  <text x="170.0" y="854.0" text-anchor="middle" class="node-sub">proteomics, microbiome, chemistry</text>
  <rect x="55.0" y="938.0" width="230.0" height="88.0" rx="10.0" fill="#eff6ff" stroke="#93c5fd" stroke-width="1.8"/>
  <text x="170.0" y="956.0" text-anchor="middle" class="node-type">INPUT</text>
  <text x="170.0" y="988.0" text-anchor="middle" class="node-title">PubMed / GEO / UKB / SQL</text>
  <text x="170.0" y="1010.0" text-anchor="middle" class="node-sub">literature, cohorts, public resources</text>
  <rect x="370.0" y="148.0" width="230.0" height="98.0" rx="10.0" fill="#f0fdf4" stroke="#86efac" stroke-width="1.8" filter="url(#shadowSoft)"/>
  <text x="485.0" y="166.0" text-anchor="middle" class="node-type">SKILL FAMILY</text>
  <text x="485.0" y="203.0" text-anchor="middle" class="node-title">Sequence prep and alignment</text>
  <text x="485.0" y="225.0" text-anchor="middle" class="node-sub">sequence-io · alignment-files</text>
  <rect x="370.0" y="314.0" width="230.0" height="98.0" rx="10.0" fill="#f0fdf4" stroke="#86efac" stroke-width="1.8" filter="url(#shadowSoft)"/>
  <text x="485.0" y="332.0" text-anchor="middle" class="node-type">SKILL FAMILY</text>
  <text x="485.0" y="369.0" text-anchor="middle" class="node-title">Expression analysis</text>
  <text x="485.0" y="391.0" text-anchor="middle" class="node-sub">bulk-rna-seq · single-cell · spatial · splicing</text>
  <rect x="370.0" y="480.0" width="230.0" height="98.0" rx="10.0" fill="#f0fdf4" stroke="#86efac" stroke-width="1.8" filter="url(#shadowSoft)"/>
  <text x="485.0" y="498.0" text-anchor="middle" class="node-type">SKILL FAMILY</text>
  <text x="485.0" y="535.0" text-anchor="middle" class="node-title">Epigenome analysis</text>
  <text x="485.0" y="557.0" text-anchor="middle" class="node-sub">ATAC · ChIP · methylation · Hi C</text>
  <rect x="370.0" y="646.0" width="230.0" height="98.0" rx="10.0" fill="#f0fdf4" stroke="#86efac" stroke-width="1.8" filter="url(#shadowSoft)"/>
  <text x="485.0" y="664.0" text-anchor="middle" class="node-type">SKILL FAMILY</text>
  <text x="485.0" y="701.0" text-anchor="middle" class="node-title">Variation and cohorts</text>
  <text x="485.0" y="723.0" text-anchor="middle" class="node-sub">variant-calling · population-genetics</text>
  <rect x="370.0" y="812.0" width="230.0" height="98.0" rx="10.0" fill="#f0fdf4" stroke="#86efac" stroke-width="1.8" filter="url(#shadowSoft)"/>
  <text x="485.0" y="830.0" text-anchor="middle" class="node-type">SKILL FAMILY</text>
  <text x="485.0" y="867.0" text-anchor="middle" class="node-title">Long read and metagenomics</text>
  <text x="485.0" y="889.0" text-anchor="middle" class="node-sub">long-read-sequencing · metagenomics</text>
  <rect x="370.0" y="978.0" width="230.0" height="98.0" rx="10.0" fill="#f0fdf4" stroke="#86efac" stroke-width="1.8" filter="url(#shadowSoft)"/>
  <text x="485.0" y="996.0" text-anchor="middle" class="node-type">SKILL FAMILY</text>
  <text x="485.0" y="1033.0" text-anchor="middle" class="node-title">Proteomics and chemistry</text>
  <text x="485.0" y="1055.0" text-anchor="middle" class="node-sub">proteomics · chemoinformatics</text>
  <rect x="630.0" y="314.0" width="220.0" height="98.0" rx="10.0" fill="#faf5ff" stroke="#c4b5fd" stroke-width="1.8" filter="url(#shadowSoft)"/>
  <text x="740.0" y="332.0" text-anchor="middle" class="node-type">SKILL FAMILY</text>
  <text x="740.0" y="369.0" text-anchor="middle" class="node-title">Literature and access</text>
  <text x="740.0" y="391.0" text-anchor="middle" class="node-sub">literature-research · reference-resources</text>
  <rect x="630.0" y="646.0" width="220.0" height="108.0" rx="10.0" fill="#faf5ff" stroke="#c4b5fd" stroke-width="1.8" filter="url(#shadowSoft)"/>
  <text x="740.0" y="664.0" text-anchor="middle" class="node-type">SHARED SUPPORT</text>
  <text x="740.0" y="706.0" text-anchor="middle" class="node-title">Pathways stats reporting</text>
  <text x="740.0" y="728.0" text-anchor="middle" class="node-sub">pathways · systems · biostats · ML · reporting</text>
  <rect x="940.0" y="148.0" width="250.0" height="88.0" rx="10.0" fill="#fff7ed" stroke="#fb923c" stroke-width="2.0" filter="url(#shadowSoft)"/>
  <rect x="946.0" y="154.0" width="238.0" height="76.0" rx="7.0" fill="none" stroke="#fb923c" stroke-width="1.2" opacity="0.65"/>
  <text x="1065.0" y="166.0" text-anchor="middle" class="node-type">WORKFLOW</text>
  <text x="1065.0" y="198.0" text-anchor="middle" class="node-title">Prep and alignment workflows</text>
  <text x="1065.0" y="220.0" text-anchor="middle" class="node-sub">sequence-prep · alignment-qc</text>
  <rect x="940.0" y="296.0" width="250.0" height="88.0" rx="10.0" fill="#fff7ed" stroke="#fb923c" stroke-width="2.0" filter="url(#shadowSoft)"/>
  <rect x="946.0" y="302.0" width="238.0" height="76.0" rx="7.0" fill="none" stroke="#fb923c" stroke-width="1.2" opacity="0.65"/>
  <text x="1065.0" y="314.0" text-anchor="middle" class="node-type">WORKFLOW</text>
  <text x="1065.0" y="346.0" text-anchor="middle" class="node-title">Expression workflows</text>
  <text x="1065.0" y="368.0" text-anchor="middle" class="node-sub">rnaseq-de · scrnaseq · multiomics</text>
  <rect x="940.0" y="444.0" width="250.0" height="88.0" rx="10.0" fill="#fff7ed" stroke="#fb923c" stroke-width="2.0" filter="url(#shadowSoft)"/>
  <rect x="946.0" y="450.0" width="238.0" height="76.0" rx="7.0" fill="none" stroke="#fb923c" stroke-width="1.2" opacity="0.65"/>
  <text x="1065.0" y="462.0" text-anchor="middle" class="node-type">WORKFLOW</text>
  <text x="1065.0" y="494.0" text-anchor="middle" class="node-title">Epigenome workflows</text>
  <text x="1065.0" y="516.0" text-anchor="middle" class="node-sub">atac · chip · methyl · hic</text>
  <rect x="940.0" y="592.0" width="250.0" height="88.0" rx="10.0" fill="#fff7ed" stroke="#fb923c" stroke-width="2.0" filter="url(#shadowSoft)"/>
  <rect x="946.0" y="598.0" width="238.0" height="76.0" rx="7.0" fill="none" stroke="#fb923c" stroke-width="1.2" opacity="0.65"/>
  <text x="1065.0" y="610.0" text-anchor="middle" class="node-type">WORKFLOW</text>
  <text x="1065.0" y="642.0" text-anchor="middle" class="node-title">Variant and cohort workflows</text>
  <text x="1065.0" y="664.0" text-anchor="middle" class="node-sub">variants · variant-report · popgen</text>
  <rect x="940.0" y="740.0" width="250.0" height="88.0" rx="10.0" fill="#fff7ed" stroke="#fb923c" stroke-width="2.0" filter="url(#shadowSoft)"/>
  <rect x="946.0" y="746.0" width="238.0" height="76.0" rx="7.0" fill="none" stroke="#fb923c" stroke-width="1.2" opacity="0.65"/>
  <text x="1065.0" y="758.0" text-anchor="middle" class="node-type">WORKFLOW</text>
  <text x="1065.0" y="790.0" text-anchor="middle" class="node-title">Long read metagenome</text>
  <text x="1065.0" y="812.0" text-anchor="middle" class="node-sub">long-read · metagenomics</text>
  <rect x="940.0" y="888.0" width="250.0" height="88.0" rx="10.0" fill="#fff7ed" stroke="#fb923c" stroke-width="2.0" filter="url(#shadowSoft)"/>
  <rect x="946.0" y="894.0" width="238.0" height="76.0" rx="7.0" fill="none" stroke="#fb923c" stroke-width="1.2" opacity="0.65"/>
  <text x="1065.0" y="906.0" text-anchor="middle" class="node-type">WORKFLOW</text>
  <text x="1065.0" y="938.0" text-anchor="middle" class="node-title">Proteomics chemistry</text>
  <text x="1065.0" y="960.0" text-anchor="middle" class="node-sub">proteomics · chem-screen</text>
  <rect x="1230.0" y="370.0" width="230.0" height="88.0" rx="10.0" fill="#fff7ed" stroke="#fb923c" stroke-width="2.0" filter="url(#shadowSoft)"/>
  <rect x="1236.0" y="376.0" width="218.0" height="76.0" rx="7.0" fill="none" stroke="#fb923c" stroke-width="1.2" opacity="0.65"/>
  <text x="1345.0" y="388.0" text-anchor="middle" class="node-type">WORKFLOW</text>
  <text x="1345.0" y="420.0" text-anchor="middle" class="node-title">Literature resource</text>
  <text x="1345.0" y="442.0" text-anchor="middle" class="node-sub">lit-to-hypothesis · cohort-access</text>
  <rect x="1230.0" y="690.0" width="230.0" height="108.0" rx="10.0" fill="#fff7ed" stroke="#fb923c" stroke-width="2.0" filter="url(#shadowSoft)"/>
  <rect x="1236.0" y="696.0" width="218.0" height="96.0" rx="7.0" fill="none" stroke="#fb923c" stroke-width="1.2" opacity="0.65"/>
  <text x="1345.0" y="708.0" text-anchor="middle" class="node-type">WORKFLOW</text>
  <text x="1345.0" y="750.0" text-anchor="middle" class="node-title">Reporting orchestrator</text>
  <text x="1345.0" y="772.0" text-anchor="middle" class="node-sub">pathways · biostats · model-eval · reporting</text>
  <rect x="32.0" y="1056.0" width="380" height="90" rx="10" fill="#ffffff" opacity="0.88"/>
  <line x1="42.0" y1="1070.0" x2="72.0" y2="1070.0" stroke="#2563eb" stroke-width="2.4" marker-end="url(#arrowC)"/>
  <text x="82.0" y="1074.0" class="legend">input types trigger grouped skills</text>
  <line x1="42.0" y1="1092.0" x2="72.0" y2="1092.0" stroke="#7c3aed" stroke-width="2.4" marker-end="url(#arrowA)"/>
  <text x="82.0" y="1096.0" class="legend">skill families route into primary workflows</text>
  <line x1="42.0" y1="1114.0" x2="72.0" y2="1114.0" stroke="#ef4444" stroke-width="2.4" marker-end="url(#arrowG)"/>
  <text x="82.0" y="1118.0" class="legend">shared support, reporting, and orchestration</text>
  <text x="42.0" y="1164.0" class="footnote">This is a grouped dependency tree. Each middle node stands for multiple canonical domains, and each workflow node stands for representative downstream routes rather than every single workflow.</text>
</svg>